<svg id="Calque_1" data-name="Calque 1" xmlns="http://www.w3.org/2000/svg" viewBox="0 0 712 520"><defs><style>.cls-1{fill:#121212;}</style></defs><title>noir</title><path class="cls-1" d="M399.35,439.94H359.21V274.12l-25.92,9.82V241.31L365.07,227h34.28Z"/><path class="cls-1" d="M473.68,391.7l97.46-128.13A73.26,73.26,0,0,0,581.4,245.9,46.14,46.14,0,0,0,585,229v-.39q0-11.52-7.42-17.77t-21.09-6.25q-13.29,0-21.49,8.69t-10,24.71v.19H470.17V238q1.75-26.56,12.79-45.71a74.66,74.66,0,0,1,29.79-29.2Q531.5,153,556.1,153q26.56,0,45.41,8.69T630.23,187q9.85,16.61,9.86,40v.19a114.39,114.39,0,0,1-6.74,38.38A120.58,120.58,0,0,1,614.5,300.1l-69.92,88.28h97.07v51.56h-168Z"/><path class="cls-1" d="M168.59,440.6a118.59,118.59,0,0,1-50-11.09l-1.35-.63a95.28,95.28,0,0,1-40-34.18q-13.28-20-15.88-46.84a6,6,0,0,1,6-6.63h57.62a6,6,0,0,1,5.86,4.75,41.76,41.76,0,0,0,5.64,13.93,33.27,33.27,0,0,0,12.82,11.72,38.92,38.92,0,0,0,18.06,4q19,0,29.42-10.62T207,335.13v-8.3q0-20.26-8.43-31.25t-24-11h-24a6,6,0,0,1-6-6V226.14a6,6,0,0,1,6-6h24q12.69,0,19.65-9.64t7-27v-6.11q0-16.35-7.69-25.26t-21.61-8.92a30.57,30.57,0,0,0-16.48,4.64,37.89,37.89,0,0,0-12.57,13.43,59.79,59.79,0,0,0-6.38,16.64,6,6,0,0,1-5.83,4.6H73.36a6,6,0,0,1-6-6.83q3.74-28.15,16.7-49.2a97.32,97.32,0,0,1,38-35.89q23.43-12.32,52.24-12.33,47.12,0,72.88,24T273,170.58v10.74q0,24.66-12.46,43a70.72,70.72,0,0,1-22.6,21.11,6,6,0,0,0,.57,10.67,61.48,61.48,0,0,1,26.31,22.42q14,21,14,53.47V342.7q0,31-12.2,53T231,429.12q-23.43,11.49-56.39,11.48Z"/></svg>